<svg width="256" height="256" viewBox="0 0 256 256" fill="none" xmlns="http://www.w3.org/2000/svg">
<path fill-rule="evenodd" clip-rule="evenodd" d="M121.905 252.038C121.905 254.18 123.592 255.947 125.733 255.982C126.487 255.994 127.243 256 128 256C129.177 256 130.351 255.985 131.52 255.956C133.648 255.903 135.314 254.141 135.314 252.013V231.84C135.314 229.523 133.352 227.698 131.036 227.763C130.028 227.792 129.016 227.806 128 227.806C127.377 227.806 126.756 227.801 126.136 227.79C123.838 227.75 121.905 229.569 121.905 231.867V252.038ZM91.4286 224.021C91.4286 222.353 90.3889 220.867 88.8434 220.239C54.4784 206.286 30.4762 174.529 30.4762 137.586C30.4762 105.456 48.631 77.2492 75.9682 61.2654C77.2245 60.5309 78.0191 59.1956 78.0191 57.7404V34.4076C78.0191 31.5884 75.1796 29.6597 72.6038 30.8055C29.6498 49.9114 1.52588e-05 90.5454 1.52588e-05 137.586C1.52588e-05 189.51 36.1261 233.629 86.3946 249.604C88.912 250.404 91.4286 248.488 91.4286 245.846V224.021ZM256 137.586C256 189.077 220.474 232.893 170.859 249.199C168.335 250.028 165.79 248.11 165.79 245.453V223.518C165.79 221.869 166.807 220.395 168.327 219.755C202.066 205.562 225.524 174.108 225.524 137.586C225.524 105.917 207.886 78.0587 181.202 61.9603C179.973 61.219 179.2 59.8989 179.2 58.4638V34.956C179.2 32.12 182.071 30.1913 184.65 31.3708C226.926 50.7049 256 91.0044 256 137.586ZM121.905 43.7606V23.4809V3.99998C121.905 1.79085 120.114 -1.52588e-05 117.905 -1.52588e-05H95.4286C93.2194 -1.52588e-05 91.4286 1.79085 91.4286 3.99998L91.4286 27.123V48.1545L91.4286 80.5815C91.4286 82.7906 93.2194 84.5815 95.4286 84.5815H117.905C120.114 84.5815 121.905 82.7906 121.905 80.5815V43.7606ZM135.314 43.8805V23.5758V3.99998C135.314 1.79085 137.105 -1.52588e-05 139.314 -1.52588e-05H161.79C164 -1.52588e-05 165.79 1.79085 165.79 3.99998V27.4352V48.54V80.5815C165.79 82.7906 164 84.5815 161.79 84.5815H139.314C137.105 84.5815 135.314 82.7906 135.314 80.5815V43.8805Z" fill="#FF1493"/>
</svg>
